<svg xmlns="http://www.w3.org/2000/svg" viewBox="0 0 900 520" role="img" aria-label="ภาพปกแดชบอร์ด">
  <defs>
    <linearGradient id="bg" x1="0" x2="1" y1="0" y2="1">
      <stop stop-color="#ffe6ef"/>
      <stop offset=".55" stop-color="#fff2d7"/>
      <stop offset="1" stop-color="#dfd5ff"/>
    </linearGradient>
    <filter id="s" x="-20%" y="-20%" width="140%" height="140%">
      <feDropShadow dx="0" dy="16" stdDeviation="18" flood-color="#77576b" flood-opacity=".18"/>
    </filter>
  </defs>
  <rect width="900" height="520" fill="url(#bg)"/>
  <circle cx="120" cy="82" r="88" fill="#f5a7c6" opacity=".45"/>
  <circle cx="790" cy="95" r="100" fill="#a9dcc5" opacity=".5"/>
  <g filter="url(#s)">
    <rect x="140" y="116" width="620" height="330" rx="34" fill="#fffaf7" opacity=".9"/>
    <rect x="184" y="162" width="170" height="106" rx="26" fill="#f7bed3"/>
    <rect x="386" y="162" width="134" height="106" rx="26" fill="#c6b2f2"/>
    <rect x="552" y="162" width="164" height="106" rx="26" fill="#ffc39d"/>
    <rect x="184" y="306" width="532" height="28" rx="14" fill="#eadde5"/>
    <rect x="184" y="354" width="370" height="28" rx="14" fill="#a9dcc5"/>
  </g>
  <path d="M126 392c58-60 138-58 194-20 82 56 158 49 226-35 46-57 106-83 196-62" fill="none" stroke="#e874a8" stroke-width="18" stroke-linecap="round" opacity=".55"/>
</svg>
