<svg xmlns="http://www.w3.org/2000/svg" viewBox="0 0 900 520" role="img" aria-label="ภาพปกสุขภาพและความสวย">
  <defs>
    <linearGradient id="bg" x1="0" x2="1" y1="0" y2="1"><stop stop-color="#eef8f2"/><stop offset=".48" stop-color="#fff2d7"/><stop offset="1" stop-color="#ffe5f0"/></linearGradient>
    <filter id="s"><feDropShadow dx="0" dy="16" stdDeviation="18" flood-color="#77576b" flood-opacity=".16"/></filter>
  </defs>
  <rect width="900" height="520" fill="url(#bg)"/>
  <g filter="url(#s)">
    <path d="M450 398c-114-72-210-150-210-245 0-52 42-92 94-92 49 0 82 28 116 72 34-44 67-72 116-72 52 0 94 40 94 92 0 95-96 173-210 245z" fill="#fffaf7"/>
    <path d="M450 354c-86-57-158-112-158-182 0-36 29-62 65-62 34 0 58 18 93 62 35-44 59-62 93-62 36 0 65 26 65 62 0 70-72 125-158 182z" fill="#f5a7c6" opacity=".65"/>
    <rect x="152" y="348" width="178" height="48" rx="24" fill="#a9dcc5"/>
    <rect x="570" y="348" width="178" height="48" rx="24" fill="#c6b2f2"/>
  </g>
  <circle cx="126" cy="116" r="54" fill="#ffc39d" opacity=".62"/>
</svg>
