<svg xmlns="http://www.w3.org/2000/svg" viewBox="0 0 900 520" role="img" aria-label="ภาพปกรายได้เสริม">
  <defs>
    <linearGradient id="bg" x1="0" x2="1" y1="0" y2="1"><stop stop-color="#f7f0ff"/><stop offset=".5" stop-color="#fff9f5"/><stop offset="1" stop-color="#e9f7f1"/></linearGradient>
    <filter id="s"><feDropShadow dx="0" dy="16" stdDeviation="18" flood-color="#77576b" flood-opacity=".16"/></filter>
  </defs>
  <rect width="900" height="520" fill="url(#bg)"/>
  <g filter="url(#s)">
    <rect x="146" y="162" width="176" height="198" rx="34" fill="#fffaf7"/>
    <rect x="362" y="112" width="176" height="248" rx="34" fill="#fffaf7"/>
    <rect x="578" y="206" width="176" height="154" rx="34" fill="#fffaf7"/>
    <circle cx="234" cy="224" r="42" fill="#f5a7c6"/>
    <rect x="198" y="292" width="72" height="24" rx="12" fill="#eadde5"/>
    <path d="M424 178h52l-26 48z" fill="#ffc39d"/>
    <rect x="412" y="260" width="76" height="28" rx="14" fill="#c6b2f2"/>
    <path d="M636 260c28-30 62-30 88 0-18 42-70 42-88 0z" fill="#a9dcc5"/>
  </g>
  <path d="M194 416c168-92 334-110 520-232" fill="none" stroke="#e874a8" stroke-width="18" stroke-linecap="round" opacity=".55"/>
</svg>
